<?xml version="1.0" encoding="UTF-8" standalone="no"?>
<!DOCTYPE svg PUBLIC "-//W3C//DTD SVG 1.1//EN" "http://www.w3.org/Graphics/SVG/1.1/DTD/svg11.dtd">
<svg width="100%" height="100%" viewBox="0 0 106 99" version="1.1" xmlns="http://www.w3.org/2000/svg" xmlns:xlink="http://www.w3.org/1999/xlink" xml:space="preserve" xmlns:serif="http://www.serif.com/" style="fill-rule:evenodd;clip-rule:evenodd;stroke-miterlimit:10;">
    <g transform="matrix(1,0,0,1,-28,-11)">
        <g id="Layer-1" serif:id="Layer 1" transform="matrix(0.5242,0,0,0.5242,71.938,11.8411)">
            <g transform="matrix(1,0,0,1,20,110.4)">
                <path d="M0,18.9L-1.1,18.9C-4,18.9 -6.3,16.6 -6.3,13.7L-6.3,5.2C-6.3,2.3 -4,0 -1.1,0L0,0C2.9,0 5.2,2.3 5.2,5.2L5.2,13.7C5.2,16.6 2.8,18.9 0,18.9" style="fill:rgb(250,203,193);fill-rule:nonzero;"/>
            </g>
            <g transform="matrix(1,0,0,1,29.2002,59.7003)">
                <path d="M0,57.5L-16.2,57.5L-16.2,11.4C-16.2,5.2 -11.1,0 -4.8,0C-2.2,0 0,2.1 0,4.8L0,57.5Z" style="fill:rgb(114,70,149);fill-rule:nonzero;"/>
            </g>
            <g transform="matrix(1,0,0,1,19.2002,113.8)">
                <path d="M0,3.8L-5,3.8C-6,3.8 -6.9,2.901 -6.9,1.901C-6.9,0.901 -6,0 -5,0L0,0C1,0 1.9,0.901 1.9,1.901C1.9,3 1,3.8 0,3.8" style="fill:rgb(229,108,166);fill-rule:nonzero;"/>
            </g>
            <g transform="matrix(-1,0,0,1,112.78,132.418)">
                <rect x="51.09" y="29.391" width="10.6" height="8.8" style="fill:rgb(153,93,89);"/>
            </g>
            <g transform="matrix(-1,0,0,1,112.78,130.839)">
                <rect x="51.09" y="30.981" width="10.6" height="7.199" style="fill:rgb(250,203,193);"/>
            </g>
            <g transform="matrix(-1,0,0,1,112.78,136.01)">
                <rect x="51.09" y="29.795" width="10.6" height="4.4" style="fill:rgb(236,239,238);"/>
            </g>
            <g transform="matrix(-1,0,0,1,112.78,134.766)">
                <rect x="51.09" y="31.967" width="10.6" height="1.3" style="fill:rgb(114,70,149);"/>
            </g>
            <g transform="matrix(-1,0,0,1,113.04,152.172)">
                <rect x="50.12" y="18.114" width="12.8" height="11.6" style="fill:rgb(232,64,65);"/>
            </g>
            <g transform="matrix(1,0,0,1,50.2002,175.5)">
                <path d="M0,9.6L28.1,9.6L28.1,9.4C28.1,4.201 23.899,0 18.7,0L6.1,0C2.8,0 0,2.701 0,6.1L0,9.6Z" style="fill:rgb(232,64,65);fill-rule:nonzero;"/>
            </g>
            <g transform="matrix(-1,0,0,1,128.398,174.755)">
                <rect x="50.149" y="10.322" width="28.1" height="4.601" style="fill:rgb(236,236,236);"/>
            </g>
            <g transform="matrix(-1,0,0,1,55.6001,179.599)">
                <path d="M0,-6.2C-1.712,-6.2 -3.1,-4.811 -3.1,-3.099C-3.1,-1.388 -1.712,0 0,0C1.712,0 3.1,-1.388 3.1,-3.099C3.1,-4.811 1.712,-6.2 0,-6.2" style="fill:rgb(245,245,245);fill-rule:nonzero;"/>
            </g>
            <g transform="matrix(-1,0,0,1,133.356,153.512)">
                <rect x="66.078" y="21.494" width="1.2" height="3.5" style="fill:rgb(236,236,236);"/>
            </g>
            <g transform="matrix(-1,0,0,1,128.909,153.512)">
                <rect x="63.854" y="21.494" width="1.201" height="3.5" style="fill:rgb(236,236,236);"/>
            </g>
            <g transform="matrix(1,0,0,1,55.2002,178.5)">
                <path d="M0,-4.3L1.6,-2L0.4,-2L0.9,0L-0.7,-2.601L0.3,-2.7L0,-4.3Z" style="fill:rgb(29,29,27);fill-rule:nonzero;"/>
            </g>
            <g transform="matrix(-1,0,0,1,113.04,152.172)">
                <rect x="50.12" y="18.114" width="12.8" height="11.6" style="fill:rgb(232,64,65);"/>
            </g>
            <g transform="matrix(1,0,0,1,50.2002,175.5)">
                <path d="M0,9.6L28.1,9.6L28.1,9.4C28.1,4.201 23.899,0 18.7,0L6.1,0C2.8,0 0,2.701 0,6.1L0,9.6Z" style="fill:rgb(232,64,65);fill-rule:nonzero;"/>
            </g>
            <g transform="matrix(-1,0,0,1,128.398,174.755)">
                <rect x="50.149" y="10.322" width="28.1" height="4.601" style="fill:rgb(245,245,245);"/>
            </g>
            <g transform="matrix(-1,0,0,1,55.6001,179.599)">
                <path d="M0,-6.2C-1.712,-6.2 -3.1,-4.811 -3.1,-3.099C-3.1,-1.388 -1.712,0 0,0C1.712,0 3.1,-1.388 3.1,-3.099C3.1,-4.811 1.712,-6.2 0,-6.2" style="fill:rgb(245,245,245);fill-rule:nonzero;"/>
            </g>
            <g transform="matrix(-1,0,0,1,133.356,153.512)">
                <rect x="66.078" y="21.494" width="1.2" height="3.5" style="fill:rgb(236,236,236);"/>
            </g>
            <g transform="matrix(-1,0,0,1,128.909,153.512)">
                <rect x="63.854" y="21.494" width="1.201" height="3.5" style="fill:rgb(236,236,236);"/>
            </g>
            <g transform="matrix(1,0,0,1,55.2002,178.5)">
                <path d="M0,-4.3L1.6,-2L0.4,-2L0.9,0L-0.7,-2.601L0.3,-2.7L0,-4.3Z" style="fill:rgb(29,29,27);fill-rule:nonzero;"/>
            </g>
            <g transform="matrix(-1,0,0,1,128.398,169.698)">
                <rect x="50.149" y="14.801" width="28.1" height="0.7" style="fill:rgb(9,43,51);"/>
            </g>
            <g transform="matrix(0,-1,-1,0,60.6504,170.45)">
                <path d="M-4.95,-2.25L1.45,-2.25L1.45,1.251L-4.95,-2.25Z" style="fill:rgb(9,43,51);fill-rule:nonzero;"/>
            </g>
            <g transform="matrix(1,0,0,1,0,132.4)">
                <rect x="25.7" y="29.4" width="10.6" height="8.8" style="fill:rgb(153,93,89);"/>
            </g>
            <g transform="matrix(1,0,0,1,0,130.8)">
                <rect x="25.7" y="31" width="10.6" height="7.2" style="fill:rgb(250,203,193);"/>
            </g>
            <g transform="matrix(1,0,0,1,0,136.2)">
                <rect x="25.7" y="29.7" width="10.6" height="4.4" style="fill:rgb(236,239,238);"/>
            </g>
            <g transform="matrix(1,0,0,1,0,134.9)">
                <rect x="25.7" y="31.9" width="10.6" height="1.3" style="fill:rgb(114,70,149);"/>
            </g>
            <g transform="matrix(1,0,0,1,0,152)">
                <rect x="24.4" y="18.2" width="12.8" height="11.6" style="fill:rgb(232,64,65);"/>
            </g>
            <g transform="matrix(1,0,0,1,37.2002,175.5)">
                <path d="M0,9.6L-28.1,9.6L-28.1,9.4C-28.1,4.201 -23.9,0 -18.7,0L-6.1,0C-2.8,0 0,2.701 0,6.1L0,9.6Z" style="fill:rgb(232,64,65);fill-rule:nonzero;"/>
            </g>
            <g transform="matrix(1,0,0,1,0,174.801)">
                <rect x="9.1" y="10.299" width="28.1" height="4.601" style="fill:rgb(236,236,236);"/>
            </g>
            <g transform="matrix(-1,0,0,1,31.7002,179.599)">
                <path d="M0,-6.2C-1.712,-6.2 -3.1,-4.811 -3.1,-3.099C-3.1,-1.388 -1.712,0 0,0C1.712,0 3.1,-1.388 3.1,-3.099C3.1,-4.811 1.712,-6.2 0,-6.2" style="fill:rgb(245,245,245);fill-rule:nonzero;"/>
            </g>
            <g transform="matrix(1,0,0,1,0,153.5)">
                <rect x="20.1" y="21.5" width="1.2" height="3.5" style="fill:rgb(236,236,236);"/>
            </g>
            <g transform="matrix(1,0,0,1,0,153.5)">
                <rect x="22.3" y="21.5" width="1.2" height="3.5" style="fill:rgb(236,236,236);"/>
            </g>
            <g transform="matrix(1,0,0,1,32.1001,178.5)">
                <path d="M0,-4.3L-1.6,-2L-0.4,-2L-0.8,0L0.8,-2.601L-0.2,-2.7L0,-4.3Z" style="fill:rgb(29,29,27);fill-rule:nonzero;"/>
            </g>
            <g transform="matrix(1,0,0,1,0,152)">
                <rect x="24.4" y="18.2" width="12.8" height="11.6" style="fill:rgb(232,64,65);"/>
            </g>
            <g transform="matrix(1,0,0,1,37.2002,175.5)">
                <path d="M0,9.6L-28.1,9.6L-28.1,9.4C-28.1,4.201 -23.9,0 -18.7,0L-6.1,0C-2.8,0 0,2.701 0,6.1L0,9.6Z" style="fill:rgb(232,64,65);fill-rule:nonzero;"/>
            </g>
            <g transform="matrix(1,0,0,1,0,174.801)">
                <rect x="9.1" y="10.299" width="28.1" height="4.601" style="fill:rgb(245,245,245);"/>
            </g>
            <g transform="matrix(-1,0,0,1,31.7002,179.599)">
                <path d="M0,-6.2C-1.712,-6.2 -3.1,-4.811 -3.1,-3.099C-3.1,-1.388 -1.712,0 0,0C1.712,0 3.1,-1.388 3.1,-3.099C3.1,-4.811 1.712,-6.2 0,-6.2" style="fill:rgb(245,245,245);fill-rule:nonzero;"/>
            </g>
            <g transform="matrix(1,0,0,1,0,153.5)">
                <rect x="20.1" y="21.5" width="1.2" height="3.5" style="fill:rgb(236,236,236);"/>
            </g>
            <g transform="matrix(1,0,0,1,0,153.5)">
                <rect x="22.3" y="21.5" width="1.2" height="3.5" style="fill:rgb(236,236,236);"/>
            </g>
            <g transform="matrix(1,0,0,1,32.1001,178.5)">
                <path d="M0,-4.3L-1.6,-2L-0.4,-2L-0.8,0L0.8,-2.601L-0.2,-2.7L0,-4.3Z" style="fill:rgb(29,29,27);fill-rule:nonzero;"/>
            </g>
            <g transform="matrix(1,0,0,1,0,169.9)">
                <rect x="9.1" y="14.7" width="28.1" height="0.7" style="fill:rgb(9,43,51);"/>
            </g>
            <g transform="matrix(0,-1,-1,0,25.7004,174)">
                <path d="M-1.399,1.301L5,1.301L5,-2.3L-1.399,1.301Z" style="fill:rgb(9,43,51);fill-rule:nonzero;"/>
            </g>
            <g transform="matrix(1,0,0,1,83.2998,88.1999)">
                <path d="M0,11.6L-0.2,-0.6L-47.5,-0.1C-53.1,0 -57.6,3.9 -57.5,8.6C-57.5,10.6 -55.5,12.2 -53.2,12.2L0,11.6Z" style="fill:rgb(114,70,149);fill-rule:nonzero;"/>
            </g>
            <g transform="matrix(1,0,0,1,84.2002,98.2999)">
                <path d="M0,-9.5L0.1,-0.1C0.1,0.9 -0.9,1.8 -2.101,1.8C-3.3,1.8 -4.3,1 -4.3,0L-4.4,-9.4C-4.4,-10.4 -3.4,-11.3 -2.2,-11.3C-1.101,-11.3 -0.101,-10.5 0,-9.5" style="fill:rgb(229,108,166);fill-rule:nonzero;"/>
            </g>
            <g transform="matrix(0.987877,0.155238,0.155238,-0.987877,36.3638,130.365)">
                <path d="M0.706,-1.038L14.878,-1.038L11.965,11.056L-0.878,9.038L0.706,-1.038Z" style="fill:rgb(9,43,51);fill-rule:nonzero;"/>
            </g>
            <g transform="matrix(1,0,0,1,0,85.2)">
                <rect x="24.5" y="37.2" width="13.4" height="40.4" style="fill:rgb(9,43,51);"/>
            </g>
            <g transform="matrix(1,0,0,1,0,90.8)">
                <rect x="26.7" y="37.2" width="1.5" height="34.8" style="fill:rgb(245,245,245);"/>
            </g>
            <g transform="matrix(-1,0,0,1,113.266,87.31)">
                <rect x="49.933" y="37.195" width="13.4" height="38.3" style="fill:rgb(9,43,51);"/>
            </g>
            <g transform="matrix(-1,0,0,1,120.924,90.825)">
                <rect x="59.712" y="37.187" width="1.5" height="34.801" style="fill:rgb(245,245,245);"/>
            </g>
            <g transform="matrix(-1,0,0,1,44.2998,66.4999)">
                <path d="M0,-29.2C-12.04,-29.2 -21.8,-22.663 -21.8,-14.6C-21.8,-6.536 -12.04,0 0,0C12.04,0 21.8,-6.536 21.8,-14.6C21.8,-22.663 12.04,-29.2 0,-29.2" style="fill:rgb(47,179,232);fill-rule:nonzero;"/>
            </g>
            <g transform="matrix(1,0,0,1,62.7002,54.8003)">
                <path d="M0,72L0,6.5C0,2.9 -2.9,-0.1 -6.6,-0.1L-30.7,-0.1C-34.3,-0.1 -37.3,2.8 -37.3,6.5L-37.3,72L0,72Z" style="fill:rgb(245,245,245);fill-rule:nonzero;"/>
            </g>
            <g transform="matrix(1,0,0,1,28.6001,53.9997)">
                <path d="M0,75.6L-6.3,75.6C-7.6,75.6 -8.7,74.5 -8.7,73.201L-8.7,10.8C-8.7,4.8 -3.9,0 2.1,0L2.4,0L2.4,73.3C2.4,74.6 1.3,75.6 0,75.6" style="fill:rgb(47,179,232);fill-rule:nonzero;"/>
            </g>
            <g transform="matrix(1,0,0,1,59,53.9997)">
                <path d="M0,75.6L6.8,75.6C8.1,75.6 9.1,74.6 9.1,73.3L9.1,11C9.1,4.9 4.2,0 -1.9,0L-2.3,0L-2.3,73.3C-2.3,74.6 -1.3,75.6 0,75.6" style="fill:rgb(47,179,232);fill-rule:nonzero;"/>
            </g>
            <g transform="matrix(-1,0,0,1,119.268,-62.288)">
                <rect x="59.084" y="124.044" width="1.1" height="14.2" style="fill:white;"/>
            </g>
            <g transform="matrix(-1,0,0,1,119.244,-45.264)">
                <rect x="59.072" y="121.182" width="1.1" height="2.9" style="fill:rgb(60,60,59);"/>
            </g>
            <g transform="matrix(-1,0,0,1,56.446,-62.288)">
                <rect x="27.673" y="124.044" width="1.1" height="14.2" style="fill:white;"/>
            </g>
            <g transform="matrix(-1,0,0,1,56.424,-45.264)">
                <rect x="27.662" y="121.182" width="1.1" height="2.9" style="fill:rgb(60,60,59);"/>
            </g>
            <g transform="matrix(-1,0,0,1,43.8999,97.9998)">
                <path d="M0,-23.8C-6.572,-23.8 -11.9,-18.472 -11.9,-11.9C-11.9,-5.328 -6.572,0 0,0C6.572,0 11.9,-5.328 11.9,-11.9C11.9,-18.472 6.572,-23.8 0,-23.8" style="fill:rgb(229,108,166);fill-rule:nonzero;"/>
            </g>
            <g transform="matrix(1,0,0,1,106.3,51.1002)">
                <path d="M0,34.5L-43.6,34.5L-33.6,1.9C-33.3,0.8 -32.2,0 -31,0L7,0C8.8,0 10.101,1.7 9.601,3.5L0,34.5Z" style="fill:rgb(116,116,118);fill-rule:nonzero;"/>
            </g>
            <g transform="matrix(-1,0,0,1,59.6001,62.9998)">
                <path d="M0,-0.8C-0.331,-0.8 -0.6,-0.621 -0.6,-0.4C-0.6,-0.179 -0.331,0 0,0C0.332,0 0.6,-0.179 0.6,-0.4C0.6,-0.621 0.332,-0.8 0,-0.8" style="fill:rgb(245,245,245);fill-rule:nonzero;"/>
            </g>
            <g transform="matrix(1,0,0,1,44.5,51.9999)">
                <path d="M0,13.3C-4.5,13.3 -8.1,9.6 -8.1,5.2L-8.1,0L8.1,0L8.1,5.2C8.1,9.6 4.5,13.3 0,13.3" style="fill:rgb(244,183,173);fill-rule:nonzero;"/>
            </g>
            <g transform="matrix(1,0,0,1,103.6,83.8998)">
                <path d="M0,5.8L-56.7,5.8C-58.3,5.8 -59.6,4.5 -59.6,2.9C-59.6,1.3 -58.3,0 -56.7,0L0,0C1.601,0 2.9,1.3 2.9,2.9C2.9,4.5 1.601,5.8 0,5.8" style="fill:rgb(156,155,155);fill-rule:nonzero;"/>
            </g>
            <g transform="matrix(1,0,0,1,62.1001,83.8998)">
                <path d="M0,5.8L-15.2,5.8C-16.8,5.8 -18.1,4.5 -18.1,2.9C-18.1,1.3 -16.8,0 -15.2,0L0.1,0C1.7,0 3,1.3 3,2.9C3,4.5 1.6,5.8 0,5.8" style="fill:rgb(198,198,197);fill-rule:nonzero;"/>
            </g>
            <g transform="matrix(1,0,0,1,84.2998,80.9002)">
                <path d="M0,16.2C1.4,16.2 10.9,15.9 13.101,15.4C15.4,14.9 16.2,13.5 17.101,10.7C18,7.9 17.8,2.2 16.2,1.6C14.601,1.1 13.601,7.4 12.601,7.3C11.7,7.1 11.101,0 9,0.4C6.9,0.8 8.8,6.7 7.8,6.8C6.8,6.9 4.8,1.7 2.8,2.2C0.8,2.7 4.9,8.9 3.8,8.8C2.7,8.6 -0.3,8.7 -0.3,8.7L0,16.2Z" style="fill:rgb(248,202,193);fill-rule:nonzero;"/>
            </g>
            <g transform="matrix(-1,0,0,1,90.2998,71.5002)">
                <path d="M0,-8.4C-2.319,-8.4 -4.2,-6.52 -4.2,-4.2C-4.2,-1.88 -2.319,0 0,0C2.319,0 4.2,-1.88 4.2,-4.2C4.2,-6.52 2.319,-8.4 0,-8.4" style="fill:rgb(236,236,236);fill-rule:nonzero;"/>
            </g>
            <g transform="matrix(1,0,0,1,24.2002,5.0998)">
                <path d="M0,25.6C0,25.6 -4.8,24.8 -4.8,18.8C-4.8,12.8 -1.8,13.3 -0.8,12.5C0.2,11.7 -1.9,10.8 -0.1,7.7C1.7,4.6 10.2,2.3 19.8,1.4C29.4,0.5 33.4,0 36.8,6.6C39.3,11.4 41.3,4.6 44.2,10.3C47.2,16 42,20 42,20L36.8,24.7L0,25.6Z" style="fill:rgb(29,29,27);fill-rule:nonzero;"/>
            </g>
            <g transform="matrix(-1,0,0,1,25.1001,40.2)">
                <path d="M0,-9.8C-2.706,-9.8 -4.9,-7.606 -4.9,-4.9C-4.9,-2.194 -2.706,0 0,0C2.706,0 4.9,-2.194 4.9,-4.9C4.9,-7.606 2.706,-9.8 0,-9.8" style="fill:rgb(248,192,184);fill-rule:nonzero;"/>
            </g>
            <g transform="matrix(1,0,0,1,25.6001,33.6)">
                <path d="M0,3.3C-0.1,3.4 -0.3,3.4 -0.3,3.3L-2.8,0.3C-2.9,0.2 -2.9,0 -2.8,0C-2.7,-0.1 -2.5,-0.1 -2.5,0L0,3C0.1,3.1 0.1,3.2 0,3.3" style="fill:rgb(239,141,137);fill-rule:nonzero;"/>
            </g>
            <g transform="matrix(1,0,0,1,25.6001,33.6)">
                <path d="M0,3.3C-0.1,3.4 -0.3,3.4 -0.3,3.3L-2.8,0.3C-2.9,0.2 -2.9,0 -2.8,0C-2.7,-0.1 -2.5,-0.1 -2.5,0L0,3C0.1,3.1 0.1,3.2 0,3.3Z" style="fill:none;fill-rule:nonzero;stroke:rgb(239,141,137);stroke-width:0.91px;"/>
            </g>
            <g transform="matrix(1,0,0,1,22.7998,33.6999)">
                <path d="M0,3.1C0.1,3.2 0.2,3.2 0.3,3.1L2.9,0.3C3,0.2 3,0.1 2.9,0C2.8,-0.1 2.7,-0.1 2.6,0L0,2.8C-0.1,2.9 -0.1,3 0,3.1" style="fill:rgb(239,141,137);fill-rule:nonzero;"/>
            </g>
            <g transform="matrix(1,0,0,1,22.7998,33.6999)">
                <path d="M0,3.1C0.1,3.2 0.2,3.2 0.3,3.1L2.9,0.3C3,0.2 3,0.1 2.9,0C2.8,-0.1 2.7,-0.1 2.6,0L0,2.8C-0.1,2.9 -0.1,3 0,3.1Z" style="fill:none;fill-rule:nonzero;stroke:rgb(239,141,137);stroke-width:0.91px;"/>
            </g>
            <g transform="matrix(-1,0,0,1,63.1992,40.2)">
                <path d="M-0.001,-9.8C-2.707,-9.8 -4.9,-7.606 -4.9,-4.9C-4.9,-2.194 -2.707,0 -0.001,0C2.706,0 4.899,-2.194 4.899,-4.9C4.899,-7.606 2.706,-9.8 -0.001,-9.8" style="fill:rgb(248,192,184);fill-rule:nonzero;"/>
            </g>
            <g transform="matrix(1,0,0,1,62.7002,33.6)">
                <path d="M0,3.3C0.1,3.4 0.3,3.4 0.3,3.3L2.8,0.3C2.899,0.2 2.899,0 2.8,0C2.7,-0.1 2.5,-0.1 2.5,0L0,3C-0.1,3.1 -0.1,3.2 0,3.3" style="fill:rgb(239,141,137);fill-rule:nonzero;"/>
            </g>
            <g transform="matrix(1,0,0,1,62.7002,33.6)">
                <path d="M0,3.3C0.1,3.4 0.3,3.4 0.3,3.3L2.8,0.3C2.899,0.2 2.899,0 2.8,0C2.7,-0.1 2.5,-0.1 2.5,0L0,3C-0.1,3.1 -0.1,3.2 0,3.3Z" style="fill:none;fill-rule:nonzero;stroke:rgb(239,141,137);stroke-width:0.91px;"/>
            </g>
            <g transform="matrix(1,0,0,1,65.5,33.6999)">
                <path d="M0,3.1C-0.1,3.2 -0.2,3.2 -0.3,3.1L-2.9,0.3C-3,0.2 -3,0.1 -2.9,0C-2.8,-0.1 -2.7,-0.1 -2.6,0L0,2.8C0.1,2.9 0.1,3 0,3.1" style="fill:rgb(239,141,137);fill-rule:nonzero;"/>
            </g>
            <g transform="matrix(1,0,0,1,65.5,33.6999)">
                <path d="M0,3.1C-0.1,3.2 -0.2,3.2 -0.3,3.1L-2.9,0.3C-3,0.2 -3,0.1 -2.9,0C-2.8,-0.1 -2.7,-0.1 -2.6,0L0,2.8C0.1,2.9 0.1,3 0,3.1Z" style="fill:none;fill-rule:nonzero;stroke:rgb(239,141,137);stroke-width:0.91px;"/>
            </g>
            <g transform="matrix(1,0,0,1,44.1001,17.6)">
                <path d="M0,36.3C-10,36.3 -18.1,28.4 -18.1,18.8L-18.1,0L18.1,0L18.1,18.9C18.1,28.5 10,36.3 0,36.3" style="fill:rgb(250,203,193);fill-rule:nonzero;"/>
            </g>
            <g transform="matrix(1,0,0,1,25.7002,20.7998)">
                <clipPath id="_clip1">
                    <path d="M0.3,-3.199L0.3,15.6C0.3,25.2 8.4,33.1 18.4,33.1C28.4,33.1 36.5,25.3 36.5,15.7L36.5,-3.199L0.3,-3.199Z" clip-rule="nonzero"/>
                </clipPath>
                <g clip-path="url(#_clip1)">
                    <path d="M0,0.4C4,-1.4 8.2,1.2 12.1,2.5C15.3,3.6 18.5,4.6 21.8,5.5C26.4,6.8 33.4,7.9 38,6C42.1,4.3 40.899,0.9 38.6,-1.7C35.1,-5.7 31.3,-5 26.7,-3C25.2,-2.3 25,0.1 26.2,1.1C29.2,3.6 32.5,3.8 36.3,3.2C38.9,2.8 38.7,-1.4 36.3,-1.9C30.2,-3.1 24.1,-4.3 18.1,-5.5C14.8,-6.1 13.4,-1.4 16.7,-0.4C18,0 19.2,0.3 20.5,0.7C21,-1 21.4,-2.7 21.9,-4.4C18.8,-5 16.2,-6.5 13,-6.8C9.6,-7.1 9.7,-1.8 13,-1.6C15.5,-1.4 18,0.1 20.5,0.6C23.8,1.3 25.2,-3.5 21.9,-4.5C20.6,-4.9 19.4,-5.2 18.1,-5.6C17.6,-3.9 17.2,-2.2 16.7,-0.5C22.8,0.7 28.9,1.9 34.9,3.1L34.9,-2C33,-1.4 31.3,-1.7 29.9,-2.8C29.7,-1.4 29.5,-0.1 29.4,1.3C30.8,0.5 32.3,0.3 33.8,0.4C35.4,1.9 35.3,2.1 33.5,1.1C31.9,1.5 29.6,1.2 28,1.1C24,0.7 20.1,-0.8 16.3,-2C9.8,-4.1 4.1,-7.5 -2.6,-4.5C-5.8,-2.7 -3.1,1.8 0,0.4" style="fill:rgb(29,29,27);fill-rule:nonzero;"/>
                </g>
            </g>
            <g transform="matrix(-1,0,0,1,35.3999,39.4)">
                <path d="M0,-4C-0.718,-4 -1.3,-3.104 -1.3,-2C-1.3,-0.896 -0.718,0 0,0C0.718,0 1.3,-0.896 1.3,-2C1.3,-3.104 0.718,-4 0,-4" style="fill:rgb(29,29,27);fill-rule:nonzero;"/>
            </g>
            <g transform="matrix(-1,0,0,1,52.6001,39.4)">
                <path d="M0,-4C-0.718,-4 -1.3,-3.104 -1.3,-2C-1.3,-0.896 -0.718,0 0,0C0.718,0 1.3,-0.896 1.3,-2C1.3,-3.104 0.718,-4 0,-4" style="fill:rgb(29,29,27);fill-rule:nonzero;"/>
            </g>
            <g transform="matrix(1,0,0,1,25,20.3001)">
                <path d="M0,0.7L9,-1.1L37.2,6.8L38.7,-3.3L24.8,-6.1L7.5,-2.7L1,-4.5L-0.9,-0.9L0,0.7Z" style="fill:rgb(29,29,27);fill-rule:nonzero;"/>
            </g>
            <g transform="matrix(1,0,0,1,0,-145.3)">
                <rect x="25.7" y="165.3" width="3.6" height="14.7" style="fill:rgb(29,29,27);"/>
            </g>
            <g transform="matrix(1,0,0,1,0,-145.3)">
                <rect x="59.7" y="165.3" width="3.6" height="14.7" style="fill:rgb(29,29,27);"/>
            </g>
            <g transform="matrix(1,0,0,1,43.1001,40.4998)">
                <path d="M0,-11.8C0,-9.9 -0.2,-7.9 0.1,-6C0.2,-5.4 0.4,-4.9 0.7,-4.4C1.3,-3.5 4.7,-1.4 0.8,-0.4C0.3,-0.3 0.5,0.5 1,0.4C2.6,0 3.9,-1.3 3.1,-3C2.6,-4.2 1.3,-4.7 0.9,-6C0.4,-7.7 0.7,-10.1 0.7,-11.9C0.8,-12.3 0,-12.3 0,-11.8" style="fill:rgb(242,148,134);fill-rule:nonzero;"/>
            </g>
            <g transform="matrix(0.438424,0.898768,0.898768,-0.438424,33.4639,32.1777)">
                <path d="M1.702,-1.124C1.285,0.303 1.987,1.742 2.69,2.956C2.997,3.585 2.099,4.024 1.702,3.438C0.867,1.954 0.077,0.336 0.632,-1.492C0.862,-2.16 1.932,-1.792 1.702,-1.124" style="fill:rgb(29,29,27);fill-rule:nonzero;"/>
            </g>
            <g transform="matrix(0.0204039,-0.999792,-0.999792,-0.0204039,53.052,30.9017)">
                <path d="M-2.548,-2.5C-1.275,-1.174 -1.311,0.625 -1.448,2.423C-1.462,3.123 -2.562,3.1 -2.548,2.401C-2.419,1.003 -2.287,-0.595 -3.364,-1.717C-3.754,-2.225 -2.938,-3.009 -2.548,-2.5" style="fill:rgb(29,29,27);fill-rule:nonzero;"/>
            </g>
            <g transform="matrix(1,0,0,1,47.5,45.9001)">
                <path d="M0,-1.9C-0.7,-0.8 -1.9,0 -3.3,0C-4.7,0 -5.9,-0.8 -6.6,-1.9" style="fill:none;fill-rule:nonzero;stroke:rgb(242,148,134);stroke-width:1.62px;stroke-linecap:round;"/>
            </g>
            <g transform="matrix(-0.134056,0.990974,0.990974,0.134056,54.956,40.4718)">
                <path d="M2.676,-3.063C1.738,-3.063 0.977,-1.854 0.976,-0.363C0.976,1.127 1.737,2.337 2.676,2.337C3.615,2.337 4.376,1.128 4.375,-0.363C4.376,-1.855 3.615,-3.063 2.676,-3.063" style="fill:rgb(246,182,175);fill-rule:nonzero;"/>
            </g>
            <g transform="matrix(-0.990969,0.13409,0.13409,0.990969,34.1554,44.7448)">
                <path d="M0.227,-3.384C-1.264,-3.384 -2.473,-2.622 -2.472,-1.684C-2.472,-0.745 -1.265,0.015 0.227,0.016C1.718,0.015 2.927,-0.746 2.927,-1.685C2.927,-2.624 1.719,-3.384 0.227,-3.384" style="fill:rgb(246,182,175);fill-rule:nonzero;"/>
            </g>
        </g>
        <g id="Layer-11" serif:id="Layer 1" transform="matrix(0.548803,0,0,0.548803,25.1891,6.13271)">
            <g transform="matrix(1,0,0,1,87.2998,95.9991)">
                <path d="M0,9.001L-0.1,-0.399L-48.3,-0.099C-54,-0.099 -58.6,2.901 -58.5,6.601C-58.5,8.101 -56.5,9.4 -54.1,9.301L0,9.001Z" style="fill:rgb(183,141,114);fill-rule:nonzero;"/>
            </g>
            <g transform="matrix(1,0,0,1,82.0996,108.8)">
                <clipPath id="_clip2">
                    <path d="M-43.1,-12.9C-48.8,-12.9 -53.4,-9.9 -53.3,-6.201C-53.3,-4.7 -51.3,-3.401 -48.9,-3.5L5.2,-3.799L5.1,-13.2L-43.1,-12.9Z" clip-rule="nonzero"/>
                </clipPath>
                <g clip-path="url(#_clip2)">
                    <path d="M0,-16.7L0,0L-30.5,0C-36.5,0 -41.399,-4.901 -41.399,-10.9L-41.399,-12.1C-41.399,-14.6 -39.3,-16.7 -36.8,-16.7L0,-16.7Z" style="fill:rgb(237,237,237);fill-rule:nonzero;"/>
                </g>
            </g>
            <g transform="matrix(1,0,0,1,0,0.76)">
                <clipPath id="_clip3">
                    <path d="M49.139,66.32L49.44,114.519C49.44,120.22 52.439,124.819 56.139,124.72C57.64,124.72 58.939,122.719 58.839,120.319L58.54,66.22L49.139,66.32Z" clip-rule="nonzero"/>
                </clipPath>
                <g clip-path="url(#_clip3)">
                    <rect x="29.739" y="91.12" width="48.3" height="17" style="fill:rgb(60,60,59);"/>
                </g>
            </g>
            <g transform="matrix(1,0,0,1,0,131.901)">
                <rect x="34" y="29.999" width="9.7" height="8.101" style="fill:rgb(153,93,89);"/>
            </g>
            <g transform="matrix(1,0,0,1,0,111.7)">
                <rect x="34" y="30.1" width="9.7" height="28.1" style="fill:rgb(183,141,114);"/>
            </g>
            <g transform="matrix(1,0,0,1,0,113.2)">
                <rect x="34" y="41.4" width="9.7" height="4" style="fill:rgb(236,239,238);"/>
            </g>
            <g transform="matrix(1,0,0,1,0,170.4)">
                <rect x="22.2" y="12.7" width="21.8" height="4.2" style="fill:rgb(236,236,236);"/>
            </g>
            <g transform="matrix(1,0,0,1,0,151)">
                <rect x="32.2" y="22.9" width="1.1" height="3.2" style="fill:rgb(236,236,236);"/>
            </g>
            <g transform="matrix(1,0,0,1,0,151)">
                <rect x="34.2" y="22.9" width="1.1" height="3.2" style="fill:rgb(236,236,236);"/>
            </g>
            <g transform="matrix(1,0,0,1,0,138.6)">
                <rect x="34.1" y="19.9" width="9.9" height="21.6" style="fill:rgb(60,60,59);"/>
            </g>
            <g transform="matrix(1,0,0,1,44,174.3)">
                <path d="M0,8.8L-21.8,8.8L-21.8,7.901C-21.8,3.5 -18.2,0 -13.9,0L-5.1,0C-2.3,0 0,2.3 0,5.1L0,8.8Z" style="fill:rgb(60,60,59);fill-rule:nonzero;"/>
            </g>
            <g transform="matrix(1,0,0,1,0,170.4)">
                <rect x="22.2" y="12.7" width="21.8" height="4.2" style="fill:rgb(29,29,27);"/>
            </g>
            <g transform="matrix(1,0,0,1,0,151)">
                <rect x="32.2" y="22.9" width="1.1" height="3.2" style="fill:rgb(236,236,236);"/>
            </g>
            <g transform="matrix(1,0,0,1,0,151)">
                <rect x="34.2" y="22.9" width="1.1" height="3.2" style="fill:rgb(236,236,236);"/>
            </g>
            <g transform="matrix(1,0,0,1,0,165.801)">
                <rect x="22.2" y="16.799" width="21.8" height="0.601" style="fill:rgb(198,198,197);"/>
            </g>
            <g transform="matrix(0,-1,-1,0,35.2989,162.701)">
                <path d="M-1.5,1.399L5.5,1.399L5.5,-2.601L-1.5,1.399Z" style="fill:rgb(9,43,51);fill-rule:nonzero;"/>
            </g>
            <g transform="matrix(1,0,0,1,43.5,153.7)">
                <path d="M0,1.8L-9.1,1.8C-9.6,1.8 -10,1.4 -10,0.9C-10,0.4 -9.6,0 -9.1,0L0,0C0.5,0 0.9,0.4 0.9,0.9C0.9,1.3 0.5,1.8 0,1.8" style="fill:rgb(217,217,217);fill-rule:nonzero;"/>
            </g>
            <g transform="matrix(-1,0,0,1,111.736,131.655)">
                <rect x="51.018" y="30.122" width="9.7" height="8.101" style="fill:rgb(153,93,89);"/>
            </g>
            <g transform="matrix(-1,0,0,1,111.736,111.813)">
                <rect x="51.018" y="30.043" width="9.7" height="28.101" style="fill:rgb(183,141,114);"/>
            </g>
            <g transform="matrix(-1,0,0,1,111.736,112.992)">
                <rect x="51.018" y="41.504" width="9.7" height="4" style="fill:rgb(236,239,238);"/>
            </g>
            <g transform="matrix(-1,0,0,1,123.276,170.524)">
                <rect x="50.738" y="12.638" width="21.8" height="4.2" style="fill:rgb(236,236,236);"/>
            </g>
            <g transform="matrix(-1,0,0,1,123.898,151.082)">
                <rect x="61.399" y="22.859" width="1.1" height="3.2" style="fill:rgb(236,236,236);"/>
            </g>
            <g transform="matrix(-1,0,0,1,120.002,151.082)">
                <rect x="59.451" y="22.859" width="1.1" height="3.2" style="fill:rgb(236,236,236);"/>
            </g>
            <g transform="matrix(-1,0,0,1,111.376,138.831)">
                <rect x="50.738" y="19.784" width="9.9" height="21.601" style="fill:rgb(60,60,59);"/>
            </g>
            <g transform="matrix(1,0,0,1,50.7998,174.3)">
                <path d="M0,8.8L21.8,8.8L21.8,7.901C21.8,3.5 18.2,0 13.9,0L5.1,0C2.3,0 0,2.3 0,5.1L0,8.8Z" style="fill:rgb(60,60,59);fill-rule:nonzero;"/>
            </g>
            <g transform="matrix(-1,0,0,1,123.276,170.524)">
                <rect x="50.738" y="12.638" width="21.8" height="4.2" style="fill:rgb(29,29,27);"/>
            </g>
            <g transform="matrix(-1,0,0,1,123.898,151.082)">
                <rect x="61.399" y="22.859" width="1.1" height="3.2" style="fill:rgb(236,236,236);"/>
            </g>
            <g transform="matrix(-1,0,0,1,120.002,151.082)">
                <rect x="59.451" y="22.859" width="1.1" height="3.2" style="fill:rgb(236,236,236);"/>
            </g>
            <g transform="matrix(-1,0,0,1,123.276,166.034)">
                <rect x="50.738" y="16.683" width="21.8" height="0.6" style="fill:rgb(198,198,197);"/>
            </g>
            <g transform="matrix(0,-1,-1,0,58.2488,158.751)">
                <path d="M-5.45,-2.551L1.55,-2.551L1.55,1.349L-5.45,-2.551Z" style="fill:rgb(9,43,51);fill-rule:nonzero;"/>
            </g>
            <g transform="matrix(1,0,0,1,51.2002,153.7)">
                <path d="M0,1.8L9.1,1.8C9.6,1.8 10,1.4 10,0.9C10,0.4 9.6,0 9.1,0L0,0C-0.5,0 -0.9,0.4 -0.9,0.9C-0.9,1.3 -0.5,1.8 0,1.8" style="fill:rgb(217,217,217);fill-rule:nonzero;"/>
            </g>
            <g transform="matrix(1,0,0,1,63.1001,59.7999)">
                <path d="M0,37L-33.8,37C-36.5,37 -38.7,34.8 -38.7,32.1L-38.7,4.9C-38.7,2.2 -36.5,0 -33.8,0L0,0C2.7,0 4.9,2.2 4.9,4.9L4.9,32.1C4.9,34.8 2.7,37 0,37" style="fill:rgb(217,82,151);fill-rule:nonzero;"/>
            </g>
            <g transform="matrix(1,0,0,1,22.6001,113)">
                <path d="M0,16.2L-1.8,16.2C-4.5,16.2 -6.6,14 -6.6,11.399L-6.6,4.8C-6.6,2.099 -4.4,0 -1.8,0L0,0C2.7,0 4.8,2.2 4.8,4.8L4.8,11.399C4.8,14 2.7,16.2 0,16.2" style="fill:rgb(183,141,114);fill-rule:nonzero;"/>
            </g>
            <g transform="matrix(1,0,0,1,31.3999,72.0999)">
                <path d="M0.1,49.2L-15.4,49.2L-15.4,9.7C-15.4,4.4 -11,0 -5.7,0L-4,0C-1.8,0 0.1,1.8 0.1,4.1L0.1,49.2Z" style="fill:rgb(183,141,114);fill-rule:nonzero;"/>
            </g>
            <g>
                <clipPath id="_clip4">
                    <path d="M25.7,72.1C20.4,72.1 16,76.5 16,81.8L16,121.299L31.5,121.299L31.5,76.2C31.5,73.9 29.6,72.1 27.4,72.1L25.7,72.1Z" clip-rule="nonzero"/>
                </clipPath>
                <g clip-path="url(#_clip4)">
                    <g transform="matrix(1,0,0,1,31.2998,71.6005)">
                        <path d="M0,41.299L-16.7,41.299L-16.7,10.9C-16.7,4.9 -11.8,0 -5.8,0L-4.6,0C-2.1,0 0,2.099 0,4.599L0,41.299Z" style="fill:rgb(237,237,237);fill-rule:nonzero;"/>
                    </g>
                    <g transform="matrix(1,0,0,1,0,-20.001)">
                        <rect x="14.6" y="91.101" width="17" height="37.799" style="fill:rgb(60,60,59);"/>
                    </g>
                </g>
            </g>
            <g transform="matrix(1,0,0,1,70.7002,67.7993)">
                <path d="M0,76.901L0,9.201C0,3.201 -5.9,-1.699 -13.1,-1.699L-35.5,-1.699C-42.8,-1.699 -48.6,3.201 -48.6,9.201L-48.6,78.6L0,76.901Z" style="fill:rgb(236,236,236);fill-rule:nonzero;"/>
            </g>
            <g transform="matrix(1,0,0,1,45.8999,62.8002)">
                <path d="M0,13.3C-4.5,13.3 -8.1,9.6 -8.1,5.2L-8.1,0L8.1,0L8.1,5.2C8.1,9.7 4.4,13.3 0,13.3" style="fill:rgb(164,126,99);fill-rule:nonzero;"/>
            </g>
            <g transform="matrix(0.8,0.6,0.6,-0.8,63.7802,57.1599)">
                <path d="M2.62,-1.96C5.26,-1.98 10.919,0.139 10.94,2.78C10.96,5.42 5.26,7.52 2.62,7.54C-0.02,7.56 -2.18,5.44 -2.2,2.8C-2.22,0.16 -0.02,-1.94 2.62,-1.96" style="fill:rgb(61,35,34);fill-rule:nonzero;"/>
            </g>
            <g transform="matrix(1,0,0,1,63.6001,51.1999)">
                <path d="M0,5.1L1.8,2C2.2,1.3 2,0.4 1.3,-0.1L0.5,-0.6C-0.2,-1 -1.1,-0.8 -1.6,-0.1L-3.4,3C-3.8,3.8 -3.6,4.8 -2.9,5.2L-2.1,5.7C-1.4,6.1 -0.5,5.8 0,5.1" style="fill:rgb(229,108,166);fill-rule:nonzero;"/>
            </g>
            <g transform="matrix(0.8,-0.6,-0.6,-0.8,28.0201,57.1599)">
                <path d="M-2.62,-1.96C-5.26,-1.98 -10.92,0.14 -10.94,2.78C-10.96,5.42 -5.26,7.52 -2.62,7.54C0.02,7.56 2.18,5.44 2.2,2.8C2.22,0.16 0.02,-1.94 -2.62,-1.96" style="fill:rgb(61,35,34);fill-rule:nonzero;"/>
            </g>
            <g transform="matrix(1,0,0,1,28.2002,51.1999)">
                <path d="M0,5.1L-1.8,2C-2.2,1.3 -2,0.4 -1.3,-0.1L-0.5,-0.6C0.2,-1 1.1,-0.8 1.6,-0.1L3.4,3C3.8,3.8 3.5,4.8 2.8,5.2L2,5.7C1.3,6.1 0.4,5.8 0,5.1" style="fill:rgb(229,108,166);fill-rule:nonzero;"/>
            </g>
            <g transform="matrix(1,0,0,1,63.8999,17.5998)">
                <path d="M0,32.1L-35.6,32.1C-36.7,32.1 -37.5,31.3 -37.5,30.3L-37.5,17.9C-37.5,8 -28.6,0 -17.8,0C-6.9,0 1.9,8.1 1.9,17.9L1.9,30.4C1.9,31.3 1.1,32.1 0,32.1" style="fill:rgb(61,35,34);fill-rule:nonzero;"/>
            </g>
            <g transform="matrix(-1,0,0,1,27.2002,51.2998)">
                <path d="M0,-9.6C-2.651,-9.6 -4.8,-7.451 -4.8,-4.8C-4.8,-2.149 -2.651,0 0,0C2.651,0 4.8,-2.149 4.8,-4.8C4.8,-7.451 2.651,-9.6 0,-9.6" style="fill:rgb(169,127,97);fill-rule:nonzero;"/>
            </g>
            <g transform="matrix(1,0,0,1,27.7002,44.8002)">
                <path d="M0,3.3C-0.1,3.4 -0.3,3.4 -0.3,3.3L-2.7,0.3C-2.8,0.2 -2.8,0 -2.7,0C-2.6,-0.1 -2.4,-0.1 -2.4,0L0,2.9C0.2,3.1 0.1,3.2 0,3.3" style="fill:rgb(96,72,56);fill-rule:nonzero;"/>
            </g>
            <g transform="matrix(1,0,0,1,27.7002,44.8002)">
                <path d="M0,3.3C-0.1,3.4 -0.3,3.4 -0.3,3.3L-2.7,0.3C-2.8,0.2 -2.8,0 -2.7,0C-2.6,-0.1 -2.4,-0.1 -2.4,0L0,2.9C0.2,3.1 0.1,3.2 0,3.3Z" style="fill:none;fill-rule:nonzero;stroke:rgb(96,72,56);stroke-width:0.86px;"/>
            </g>
            <g transform="matrix(1,0,0,1,24.8999,44.9001)">
                <path d="M0,3.1C0.1,3.2 0.2,3.2 0.3,3.1L2.9,0.3C3,0.2 3,0.1 2.9,0C2.8,-0.1 2.7,-0.1 2.6,0L0,2.8C-0.1,2.9 -0.1,3 0,3.1" style="fill:rgb(96,72,56);fill-rule:nonzero;"/>
            </g>
            <g transform="matrix(1,0,0,1,24.8999,44.9001)">
                <path d="M0,3.1C0.1,3.2 0.2,3.2 0.3,3.1L2.9,0.3C3,0.2 3,0.1 2.9,0C2.8,-0.1 2.7,-0.1 2.6,0L0,2.8C-0.1,2.9 -0.1,3 0,3.1Z" style="fill:none;fill-rule:nonzero;stroke:rgb(96,72,56);stroke-width:0.86px;"/>
            </g>
            <g transform="matrix(-1,0,0,1,65,51.2998)">
                <path d="M0,-9.6C-2.651,-9.6 -4.8,-7.451 -4.8,-4.8C-4.8,-2.149 -2.651,0 0,0C2.651,0 4.8,-2.149 4.8,-4.8C4.8,-7.451 2.651,-9.6 0,-9.6" style="fill:rgb(169,127,97);fill-rule:nonzero;"/>
            </g>
            <g transform="matrix(1,0,0,1,64.5,44.9002)">
                <path d="M0,3.2C0.1,3.3 0.3,3.3 0.3,3.2L2.7,0.3C2.8,0.2 2.8,-0 2.7,-0C2.6,-0.1 2.4,-0.1 2.4,-0L0,2.9C-0.1,3 -0.1,3.1 0,3.2" style="fill:rgb(96,72,56);fill-rule:nonzero;"/>
            </g>
            <g transform="matrix(1,0,0,1,64.5,44.9002)">
                <path d="M0,3.2C0.1,3.3 0.3,3.3 0.3,3.2L2.7,0.3C2.8,0.2 2.8,-0 2.7,-0C2.6,-0.1 2.4,-0.1 2.4,-0L0,2.9C-0.1,3 -0.1,3.1 0,3.2Z" style="fill:none;fill-rule:nonzero;stroke:rgb(96,72,56);stroke-width:0.86px;"/>
            </g>
            <g transform="matrix(1,0,0,1,67.2998,44.9001)">
                <path d="M0,3.1C-0.1,3.2 -0.2,3.2 -0.3,3.1L-2.9,0.3C-3,0.2 -3,0.1 -2.9,0C-2.8,-0.1 -2.7,-0.1 -2.6,0L0,2.8C0.101,2.9 0.101,3 0,3.1" style="fill:rgb(96,72,56);fill-rule:nonzero;"/>
            </g>
            <g transform="matrix(1,0,0,1,67.2998,44.9001)">
                <path d="M0,3.1C-0.1,3.2 -0.2,3.2 -0.3,3.1L-2.9,0.3C-3,0.2 -3,0.1 -2.9,0C-2.8,-0.1 -2.7,-0.1 -2.6,0L0,2.8C0.101,2.9 0.101,3 0,3.1Z" style="fill:none;fill-rule:nonzero;stroke:rgb(96,72,56);stroke-width:0.86px;"/>
            </g>
            <g transform="matrix(1,0,0,1,46.1001,29.0001)">
                <path d="M0,36C-9.9,36 -17.9,28.2 -17.9,18.7L-17.9,0L17.9,0L17.9,18.7C17.9,28.2 9.8,36 0,36" style="fill:rgb(183,141,114);fill-rule:nonzero;"/>
            </g>
            <g transform="matrix(-1,0,0,1,37.3999,50.6002)">
                <path d="M0,-4C-0.663,-4 -1.2,-3.105 -1.2,-2C-1.2,-0.896 -0.663,0 0,0C0.663,0 1.2,-0.896 1.2,-2C1.2,-3.105 0.663,-4 0,-4" style="fill:rgb(29,29,27);fill-rule:nonzero;"/>
            </g>
            <g transform="matrix(-1,0,0,1,54.3999,50.6002)">
                <path d="M0,-4C-0.663,-4 -1.2,-3.105 -1.2,-2C-1.2,-0.896 -0.663,0 0,0C0.663,0 1.2,-0.896 1.2,-2C1.2,-3.105 0.663,-4 0,-4" style="fill:rgb(29,29,27);fill-rule:nonzero;"/>
            </g>
            <g transform="matrix(0.39055,0.920582,0.920582,-0.39055,35.7853,42.0689)">
                <path d="M1.482,-0.939C1.504,0.138 1.973,1.243 2.495,2.216C2.768,2.861 1.848,3.251 1.482,2.646C0.882,1.488 0.375,0.292 0.366,-1.008C0.408,-1.678 1.432,-1.569 1.482,-0.939" style="fill:rgb(61,35,34);fill-rule:nonzero;"/>
            </g>
            <g transform="matrix(-0.181162,-0.983453,-0.983453,0.181162,54.5018,41.3366)">
                <path d="M-2.008,-2.272C-1.299,-1.183 -1.064,0.096 -0.926,1.393C-0.8,2.081 -1.881,2.28 -2.008,1.592C-2.109,0.492 -2.308,-0.59 -2.901,-1.599C-3.108,-2.171 -2.314,-2.826 -2.008,-2.272" style="fill:rgb(61,35,34);fill-rule:nonzero;"/>
            </g>
            <g transform="matrix(-0.133898,0.990995,0.990995,0.133898,56.7782,51.5833)">
                <path d="M2.676,-3.061C1.736,-3.062 0.975,-1.853 0.976,-0.362C0.975,1.13 1.737,2.339 2.676,2.338C3.615,2.339 4.376,1.129 4.375,-0.361C4.376,-1.853 3.614,-3.062 2.676,-3.061" style="fill:rgb(157,118,92);fill-rule:nonzero;"/>
            </g>
            <g transform="matrix(-0.990964,0.134129,0.134129,0.990964,36.2482,55.839)">
                <path d="M0.227,-3.384C-1.264,-3.384 -2.473,-2.623 -2.472,-1.684C-2.472,-0.745 -1.263,0.015 0.227,0.015C1.718,0.015 2.927,-0.746 2.927,-1.685C2.927,-2.624 1.718,-3.384 0.227,-3.384" style="fill:rgb(157,118,92);fill-rule:nonzero;"/>
            </g>
            <g transform="matrix(0.371391,-0.928477,-0.928477,-0.371391,35.7235,39.4228)">
                <path d="M-0.712,2.648L3.058,2.648C3.281,2.63 3.355,2.444 3.206,2.277L0.477,-0.323L-0.712,2.648Z" style="fill:rgb(183,141,114);fill-rule:nonzero;"/>
            </g>
            <g transform="matrix(1,0,0,1,29,28.5001)">
                <path d="M0,18C-0.6,18 -1.2,17.5 -1.2,16.8L-1.2,1.2C-1.2,0.6 -0.7,0 0,0C0.6,0 1.2,0.5 1.2,1.2L1.2,16.8C1.1,17.4 0.6,18 0,18" style="fill:rgb(61,35,34);fill-rule:nonzero;"/>
            </g>
            <g transform="matrix(1,0,0,1,63,34.7002)">
                <path d="M0,8.9C-0.6,8.9 -1.2,8.4 -1.2,7.7L-1.2,1.2C-1.2,0.6 -0.7,0 0,0C0.6,0 1.2,0.5 1.2,1.2L1.2,7.7C1.1,8.4 0.6,8.9 0,8.9" style="fill:rgb(61,35,34);fill-rule:nonzero;"/>
            </g>
            <g transform="matrix(-1,0,0,1,25.1001,51.8999)">
                <path d="M0,-2.6C-0.718,-2.6 -1.3,-2.018 -1.3,-1.3C-1.3,-0.582 -0.718,0 0,0C0.718,0 1.3,-0.582 1.3,-1.3C1.3,-2.018 0.718,-2.6 0,-2.6" style="fill:rgb(255,207,2);fill-rule:nonzero;"/>
            </g>
            <g transform="matrix(-1,0,0,1,66.1006,51.8999)">
                <path d="M0.001,-2.6C-0.718,-2.6 -1.3,-2.018 -1.3,-1.3C-1.3,-0.582 -0.718,0 0.001,0C0.719,0 1.301,-0.582 1.301,-1.3C1.301,-2.018 0.719,-2.6 0.001,-2.6" style="fill:rgb(255,207,2);fill-rule:nonzero;"/>
            </g>
            <g transform="matrix(1,0,0,1,28,46.6)">
                <path d="M0,-17.7C0,-17.7 14.2,-0.5 36.1,0.1L36.3,-17.8L0,-17.7Z" style="fill:rgb(61,35,34);fill-rule:nonzero;"/>
            </g>
            <g transform="matrix(1,0,0,1,45.2998,52.3)">
                <path d="M0,-6.9C0.3,-5.5 0.7,-4.2 1,-2.8C1.1,-2.4 1.6,-1.3 1.3,-0.9C0.9,-0.4 -0.4,-0.8 -0.9,-1C-1.4,-1.2 -1.6,-0.4 -1.1,-0.2C-0.3,0.1 2,0.7 2.4,-0.5C2.6,-1.2 1.9,-2.6 1.8,-3.2C1.5,-4.5 1.2,-5.8 0.8,-7C0.6,-7.6 -0.2,-7.4 0,-6.9" style="fill:rgb(96,72,56);fill-rule:nonzero;"/>
            </g>
            <g transform="matrix(1,0,0,1,51,59.2998)">
                <path d="M0,-4.6C0,-2.1 -2.4,0 -5.3,0C-8.2,0 -10.6,-2 -10.6,-4.6L0,-4.6Z" style="fill:rgb(29,29,27);fill-rule:nonzero;"/>
            </g>
            <g>
                <clipPath id="_clip5">
                    <path d="M40.4,54.7C40.4,57.3 42.799,59.3 45.7,59.3C48.6,59.3 51,57.2 51,54.7L40.4,54.7Z" clip-rule="nonzero"/>
                </clipPath>
                <g clip-path="url(#_clip5)">
                    <g transform="matrix(1,0,0,1,49.2998,54.3002)">
                        <path d="M0,1.8L-7.3,1.8C-7.7,1.8 -8,1.5 -8,1.1L-8,0L0.7,0L0.7,1.1C0.7,1.5 0.4,1.8 0,1.8" style="fill:white;fill-rule:nonzero;"/>
                    </g>
                    <g transform="matrix(-1,0,0,1,44,61.7999)">
                        <path d="M0,-4C-1.988,-4 -3.6,-3.104 -3.6,-2C-3.6,-0.896 -1.988,0 0,0C1.988,0 3.6,-0.896 3.6,-2C3.6,-3.104 1.988,-4 0,-4" style="fill:rgb(236,127,176);fill-rule:nonzero;"/>
                    </g>
                </g>
            </g>
            <g transform="matrix(1,0,0,1,33.6001,66.1003)">
                <path d="M0,63.1L-9.2,63.1C-10.6,63.1 -11.6,61.999 -11.6,60.7L-11.6,11.2C-11.6,5 -6.6,0 -0.4,0L2.6,0L2.6,60.6C2.4,61.999 1.3,63.1 0,63.1" style="fill:rgb(60,60,59);fill-rule:nonzero;"/>
            </g>
            <g transform="matrix(1,0,0,1,60.2998,66.2003)">
                <path d="M0,63L8.9,63C10.2,63 11.2,62 11.2,60.699L11.2,10.9C11.2,4.9 6.3,0 0.3,0L-2.3,0L-2.3,60.699C-2.3,61.899 -1.3,63 0,63" style="fill:rgb(60,60,59);fill-rule:nonzero;"/>
            </g>
            <g transform="matrix(1,0,0,1,24.7998,66.1999)">
                <path d="M0,43.6C-1.8,43.6 -3.3,42.1 -3.3,40.3L-3.3,2.1C-3.3,1 -2.4,0 -1.2,0L3.3,0L3.3,40.3C3.3,42.1 1.9,43.6 0,43.6" style="fill:rgb(229,108,166);fill-rule:nonzero;"/>
            </g>
            <g transform="matrix(1,0,0,1,68.2002,66.1999)">
                <path d="M0,43.6C1.8,43.6 3.3,42.1 3.3,40.3L3.3,2.1C3.3,1 2.399,0 1.2,0L-3.3,0L-3.3,40.3C-3.3,42.1 -1.8,43.6 0,43.6" style="fill:rgb(229,108,166);fill-rule:nonzero;"/>
            </g>
            <g transform="matrix(1,0,0,1,0,18.5)">
                <rect x="58" y="74.2" width="0.9" height="33.1" style="fill:rgb(198,198,197);"/>
            </g>
            <g transform="matrix(1,0,0,1,0,18.5)">
                <rect x="35.2" y="74.2" width="0.9" height="33.1" style="fill:rgb(198,198,197);"/>
            </g>
            <g transform="matrix(-0.762294,0.647231,0.647231,0.762294,33.0452,89.1951)">
                <path d="M-17.364,-15.423L-3.459,-15.423C-2.038,-15.449 -1.132,-14.381 -1.247,-12.972L-3.026,1.001L-17.364,-15.423Z" style="fill:rgb(29,29,27);fill-rule:nonzero;"/>
            </g>
            <g transform="matrix(-0.703055,0.711136,0.711136,0.703055,35.5561,99.0274)">
                <path d="M-15.976,-15.029L-3.601,-15.029C-2.328,-15.036 -1.262,-14.123 -1.184,-12.78L-0.474,0.156L-15.976,-15.029Z" style="fill:rgb(29,29,27);fill-rule:nonzero;"/>
            </g>
            <g transform="matrix(0.762294,0.647231,0.647231,-0.762294,66.4454,65.0045)">
                <path d="M-5.664,-6.377L8.241,-6.377C9.662,-6.351 10.568,-7.419 10.453,-8.828L8.674,-22.801L-5.664,-6.377Z" style="fill:rgb(29,29,27);fill-rule:nonzero;"/>
            </g>
            <g transform="matrix(0.667248,0.744835,0.744835,-0.667248,67.9394,76.3514)">
                <path d="M-6.745,-7.302L6.144,-7.302C7.415,-7.232 8.524,-8.092 8.668,-9.429L9.939,-22.248L-6.745,-7.302Z" style="fill:rgb(29,29,27);fill-rule:nonzero;"/>
            </g>
            <g transform="matrix(1,0,0,1,35.6001,125)">
                <path d="M0,3C-0.4,3 -0.8,2.6 -0.8,2.2L-0.8,0.8C-0.8,0.399 -0.4,0 0,0C0.4,0 0.8,0.399 0.8,0.8L0.8,2.2C0.8,2.6 0.5,3 0,3" style="fill:rgb(156,155,155);fill-rule:nonzero;"/>
            </g>
            <g transform="matrix(1,0,0,1,0,51.7)">
                <rect x="57.9" y="73.7" width="1.3" height="0.9" style="fill:rgb(156,155,155);"/>
            </g>
            <g transform="matrix(1,0,0,1,35.6001,125.8)">
                <path d="M0,1.4C-0.2,1.4 -0.3,1.299 -0.3,1.099L-0.3,0.299C-0.3,0.099 -0.2,0 0,0C0.2,0 0.3,0.099 0.3,0.299L0.3,1.099C0.4,1.299 0.2,1.4 0,1.4" style="fill:rgb(198,198,197);fill-rule:nonzero;"/>
            </g>
            <g transform="matrix(-1,0,0,1,61.2002,76.2001)">
                <path d="M0,-4.2C-1.16,-4.2 -2.1,-3.26 -2.1,-2.1C-2.1,-0.94 -1.16,0 0,0C1.16,0 2.1,-0.94 2.1,-2.1C2.1,-3.26 1.16,-4.2 0,-4.2" style="fill:rgb(217,38,64);fill-rule:nonzero;"/>
            </g>
            <g transform="matrix(-1,0,0,1,61.2002,80.7999)">
                <path d="M0,-3C-0.828,-3 -1.5,-2.328 -1.5,-1.5C-1.5,-0.671 -0.828,0 0,0C0.829,0 1.5,-0.671 1.5,-1.5C1.5,-2.328 0.829,-3 0,-3" style="fill:white;fill-rule:nonzero;"/>
            </g>
            <g transform="matrix(-1,0,0,1,64.7998,79.1998)">
                <path d="M0,-3C-0.829,-3 -1.5,-2.328 -1.5,-1.5C-1.5,-0.671 -0.829,0 0,0C0.828,0 1.5,-0.671 1.5,-1.5C1.5,-2.328 0.828,-3 0,-3" style="fill:rgb(65,186,193);fill-rule:nonzero;"/>
            </g>
            <g transform="matrix(-0.508729,0.860927,0.860927,0.508729,67.6652,120.677)">
                <path d="M-7.711,-4.4C-7.711,-4.4 -2.119,-1.676 2.511,-4.4" style="fill:none;fill-rule:nonzero;stroke:rgb(198,198,197);stroke-width:1.39px;"/>
            </g>
            <g transform="matrix(0.508729,0.860927,0.860927,-0.508729,31.0654,111.723)">
                <path d="M-2.511,-4.4C-2.511,-4.4 3.081,-7.124 7.711,-4.4" style="fill:none;fill-rule:nonzero;stroke:rgb(198,198,197);stroke-width:1.39px;"/>
            </g>
            <g transform="matrix(1,0,0,1,102.8,64.9998)">
                <path d="M0,32.7L-36.5,32.5C-38,32.5 -39,31.1 -38.6,29.7L-29.8,1.8C-29.5,0.7 -28.5,0 -27.399,0L8.4,0.2C10.101,0.2 11.3,1.9 10.8,3.5L2.101,31.2C1.8,32 1,32.7 0,32.7" style="fill:rgb(116,116,118);fill-rule:nonzero;"/>
            </g>
            <g transform="matrix(1,0,0,1,84.2998,88.9001)">
                <path d="M0,16.1C1.4,16.1 10.9,15.9 13.101,15.4C15.4,14.9 16.2,13.499 17.101,10.8C18,8 17.9,2.3 16.2,1.7C14.601,1.2 13.5,7.5 12.601,7.3C11.7,7.1 11.2,0 9.101,0.4C7,0.8 8.8,6.7 7.9,6.8C7,6.8 5,1.7 3,2.2C1,2.7 5.101,8.9 4,8.8C2.9,8.6 -0.1,8.7 -0.1,8.7L0,16.1Z" style="fill:rgb(183,141,114);fill-rule:nonzero;"/>
            </g>
            <g transform="matrix(-1,0,0,1,88.5,85.7999)">
                <path d="M0,-8C-2.209,-8 -4,-6.209 -4,-4C-4,-1.791 -2.209,0 0,0C2.209,0 4,-1.791 4,-4C4,-6.209 2.209,-8 0,-8" style="fill:rgb(236,236,236);fill-rule:nonzero;"/>
            </g>
        </g>
    </g>
</svg>
