<?xml version="1.0" encoding="UTF-8" standalone="no"?>
<!DOCTYPE svg PUBLIC "-//W3C//DTD SVG 1.1//EN" "http://www.w3.org/Graphics/SVG/1.1/DTD/svg11.dtd">
<svg width="100%" height="100%" viewBox="0 0 1081 996" version="1.1" xmlns="http://www.w3.org/2000/svg" xmlns:xlink="http://www.w3.org/1999/xlink" xml:space="preserve" xmlns:serif="http://www.serif.com/" style="fill-rule:evenodd;clip-rule:evenodd;stroke-linejoin:round;stroke-miterlimit:2;">
    <g id="レイヤー-1" serif:id="レイヤー 1" transform="matrix(4.16667,0,0,4.16667,0,0)">
        <g>
            <g transform="matrix(60.612,0,0,60.612,46.4614,182.883)">
                <path d="M0.321,-0.252L0.321,-0.151C0.32,-0.121 0.314,-0.094 0.303,-0.071C0.294,-0.051 0.28,-0.032 0.26,-0.017C0.24,-0.001 0.213,0.008 0.177,0.008C0.141,0.008 0.113,-0.001 0.093,-0.017C0.073,-0.032 0.06,-0.051 0.051,-0.071C0.04,-0.094 0.034,-0.121 0.033,-0.151L0.033,-0.584C0.034,-0.613 0.04,-0.64 0.051,-0.663C0.06,-0.683 0.073,-0.703 0.093,-0.718C0.113,-0.733 0.141,-0.743 0.177,-0.743C0.213,-0.743 0.24,-0.733 0.26,-0.718C0.28,-0.703 0.294,-0.683 0.303,-0.663C0.314,-0.64 0.32,-0.613 0.321,-0.584L0.321,-0.483L0.22,-0.483L0.22,-0.584C0.22,-0.604 0.215,-0.618 0.204,-0.63C0.199,-0.635 0.19,-0.638 0.179,-0.638C0.16,-0.638 0.151,-0.624 0.146,-0.611C0.143,-0.603 0.142,-0.594 0.141,-0.584L0.141,-0.151C0.142,-0.13 0.148,-0.116 0.158,-0.105C0.163,-0.1 0.17,-0.097 0.179,-0.097C0.202,-0.097 0.211,-0.109 0.216,-0.124C0.219,-0.131 0.22,-0.14 0.22,-0.151L0.22,-0.252L0.321,-0.252Z" style="fill:rgb(35,31,32);fill-rule:nonzero;"/>
            </g>
            <g transform="matrix(60.612,0,0,60.612,67.4332,182.883)">
                <path d="M0.29,-0.133C0.287,-0.08 0.271,-0.043 0.236,-0.014C0.218,0.001 0.193,0.008 0.16,0.008C0.095,0.008 0.063,-0.028 0.047,-0.064C0.038,-0.085 0.032,-0.109 0.031,-0.136L0.031,-0.411C0.034,-0.464 0.05,-0.503 0.085,-0.533C0.102,-0.548 0.127,-0.555 0.16,-0.555C0.225,-0.555 0.258,-0.519 0.274,-0.484C0.283,-0.463 0.289,-0.44 0.29,-0.414L0.29,-0.133ZM0.195,-0.411C0.196,-0.432 0.192,-0.447 0.182,-0.459C0.177,-0.464 0.169,-0.467 0.16,-0.467C0.141,-0.467 0.133,-0.454 0.129,-0.439C0.126,-0.431 0.125,-0.422 0.126,-0.411L0.126,-0.136C0.125,-0.115 0.13,-0.1 0.139,-0.089C0.144,-0.084 0.151,-0.081 0.16,-0.081C0.179,-0.081 0.188,-0.093 0.192,-0.108C0.195,-0.116 0.196,-0.125 0.195,-0.136L0.195,-0.411Z" style="fill:rgb(35,31,32);fill-rule:nonzero;"/>
            </g>
            <g transform="matrix(60.612,0,0,60.612,86.8896,182.883)">
                <path d="M0.295,-0L0.194,-0L0.194,-0.036C0.177,-0.02 0.162,-0.008 0.143,0.001C0.133,0.006 0.123,0.008 0.114,0.008C0.086,0.008 0.067,-0.008 0.055,-0.029C0.042,-0.049 0.036,-0.076 0.036,-0.099L0.036,-0.448C0.036,-0.471 0.042,-0.498 0.055,-0.519C0.067,-0.539 0.086,-0.555 0.114,-0.555C0.133,-0.555 0.153,-0.544 0.168,-0.533C0.177,-0.526 0.185,-0.519 0.194,-0.511L0.194,-0.735L0.295,-0.735L0.295,-0ZM0.194,-0.427C0.194,-0.443 0.179,-0.46 0.164,-0.46C0.149,-0.46 0.137,-0.446 0.137,-0.427L0.137,-0.12C0.137,-0.101 0.149,-0.087 0.164,-0.087C0.179,-0.087 0.194,-0.101 0.194,-0.12L0.194,-0.427Z" style="fill:rgb(35,31,32);fill-rule:nonzero;"/>
            </g>
            <g transform="matrix(60.612,0,0,60.612,107.195,182.883)">
                <path d="M0.293,-0.196L0.293,-0.133C0.29,-0.08 0.274,-0.043 0.238,-0.014C0.22,0.001 0.195,0.008 0.162,0.008C0.097,0.008 0.064,-0.028 0.048,-0.064C0.039,-0.085 0.033,-0.109 0.032,-0.136L0.032,-0.411C0.035,-0.464 0.052,-0.503 0.088,-0.533C0.105,-0.548 0.13,-0.555 0.163,-0.555C0.228,-0.555 0.261,-0.519 0.277,-0.484C0.286,-0.463 0.292,-0.44 0.293,-0.414L0.293,-0.255L0.126,-0.255L0.126,-0.136C0.127,-0.115 0.133,-0.1 0.142,-0.089C0.147,-0.084 0.154,-0.081 0.163,-0.081C0.182,-0.081 0.191,-0.093 0.195,-0.108C0.198,-0.116 0.199,-0.125 0.199,-0.136L0.199,-0.196L0.293,-0.196ZM0.126,-0.334L0.199,-0.334L0.199,-0.411C0.199,-0.432 0.195,-0.447 0.185,-0.459C0.18,-0.464 0.172,-0.467 0.163,-0.467C0.144,-0.467 0.136,-0.454 0.131,-0.439C0.128,-0.431 0.127,-0.422 0.126,-0.411L0.126,-0.334Z" style="fill:rgb(35,31,32);fill-rule:nonzero;"/>
            </g>
            <g transform="matrix(60.612,0,0,60.612,126.712,182.883)">
                <path d="M0.242,-0.443C0.233,-0.446 0.223,-0.447 0.214,-0.447C0.198,-0.447 0.179,-0.445 0.163,-0.43C0.144,-0.414 0.141,-0.397 0.141,-0.38L0.141,-0L0.04,-0L0.04,-0.547L0.141,-0.547L0.141,-0.486C0.142,-0.493 0.149,-0.51 0.165,-0.526C0.181,-0.541 0.205,-0.555 0.242,-0.555L0.242,-0.443Z" style="fill:rgb(35,31,32);fill-rule:nonzero;"/>
            </g>
            <g transform="matrix(60.612,0,0,60.612,141.622,182.883)">
                <path d="M0.04,-0L0.04,-0.735L0.125,-0.735C0.225,-0.735 0.279,-0.715 0.308,-0.659C0.336,-0.603 0.34,-0.511 0.34,-0.367C0.34,-0.223 0.336,-0.132 0.308,-0.076C0.279,-0.02 0.225,-0 0.125,-0L0.04,-0ZM0.148,-0.108C0.185,-0.108 0.206,-0.112 0.217,-0.148C0.222,-0.165 0.226,-0.191 0.227,-0.226C0.228,-0.261 0.228,-0.308 0.228,-0.368C0.228,-0.428 0.228,-0.475 0.227,-0.51C0.226,-0.544 0.222,-0.57 0.217,-0.588C0.206,-0.623 0.185,-0.627 0.148,-0.627L0.148,-0.108Z" style="fill:rgb(35,31,32);fill-rule:nonzero;"/>
            </g>
            <g transform="matrix(60.612,0,0,60.612,164.17,182.883)">
                <path d="M0.29,-0.133C0.287,-0.08 0.271,-0.043 0.236,-0.014C0.218,0.001 0.193,0.008 0.16,0.008C0.095,0.008 0.063,-0.028 0.047,-0.064C0.038,-0.085 0.032,-0.109 0.031,-0.136L0.031,-0.411C0.034,-0.464 0.05,-0.503 0.085,-0.533C0.102,-0.548 0.127,-0.555 0.16,-0.555C0.225,-0.555 0.258,-0.519 0.274,-0.484C0.283,-0.463 0.289,-0.44 0.29,-0.414L0.29,-0.133ZM0.195,-0.411C0.196,-0.432 0.192,-0.447 0.182,-0.459C0.177,-0.464 0.169,-0.467 0.16,-0.467C0.141,-0.467 0.133,-0.454 0.129,-0.439C0.126,-0.431 0.125,-0.422 0.126,-0.411L0.126,-0.136C0.125,-0.115 0.13,-0.1 0.139,-0.089C0.144,-0.084 0.151,-0.081 0.16,-0.081C0.179,-0.081 0.188,-0.093 0.192,-0.108C0.195,-0.116 0.196,-0.125 0.195,-0.136L0.195,-0.411Z" style="fill:rgb(35,31,32);fill-rule:nonzero;"/>
            </g>
            <g transform="matrix(60.612,0,0,60.612,183.626,182.883)">
                <path d="M0.037,-0.735L0.138,-0.735L0.138,-0.634L0.037,-0.634L0.037,-0.735ZM0.138,-0.547L0.138,0.014C0.138,0.042 0.138,0.086 0.124,0.122C0.11,0.159 0.079,0.188 0.022,0.188C0.006,0.188 -0.005,0.187 -0.012,0.185C-0.016,0.184 -0.019,0.183 -0.022,0.182L-0.022,0.089C-0.019,0.09 -0.016,0.09 -0.013,0.091C-0.006,0.092 0,0.093 0.006,0.093C0.023,0.093 0.031,0.079 0.035,0.062C0.036,0.054 0.037,0.045 0.037,0.036L0.037,-0.547L0.138,-0.547Z" style="fill:rgb(35,31,32);fill-rule:nonzero;"/>
            </g>
            <g transform="matrix(60.612,0,0,60.612,194.415,182.883)">
                <path d="M0.29,-0.133C0.287,-0.08 0.271,-0.043 0.236,-0.014C0.218,0.001 0.193,0.008 0.16,0.008C0.095,0.008 0.063,-0.028 0.047,-0.064C0.038,-0.085 0.032,-0.109 0.031,-0.136L0.031,-0.411C0.034,-0.464 0.05,-0.503 0.085,-0.533C0.102,-0.548 0.127,-0.555 0.16,-0.555C0.225,-0.555 0.258,-0.519 0.274,-0.484C0.283,-0.463 0.289,-0.44 0.29,-0.414L0.29,-0.133ZM0.195,-0.411C0.196,-0.432 0.192,-0.447 0.182,-0.459C0.177,-0.464 0.169,-0.467 0.16,-0.467C0.141,-0.467 0.133,-0.454 0.129,-0.439C0.126,-0.431 0.125,-0.422 0.126,-0.411L0.126,-0.136C0.125,-0.115 0.13,-0.1 0.139,-0.089C0.144,-0.084 0.151,-0.081 0.16,-0.081C0.179,-0.081 0.188,-0.093 0.192,-0.108C0.195,-0.116 0.196,-0.125 0.195,-0.136L0.195,-0.411Z" style="fill:rgb(35,31,32);fill-rule:nonzero;"/>
            </g>
            <g transform="matrix(25.3988,0,0,25.3988,93.1304,217.172)">
                <path d="M0.851,-0.548L0.152,-0.548L0.152,-0.358L0.27,-0.358C0.276,-0.345 0.29,-0.308 0.295,-0.291L0.038,-0.291L0.038,-0.224L0.962,-0.224L0.962,-0.291L0.71,-0.291C0.714,-0.301 0.719,-0.312 0.735,-0.358L0.851,-0.358L0.851,-0.548ZM0.77,-0.419L0.233,-0.419L0.233,-0.487L0.77,-0.487L0.77,-0.419ZM0.377,-0.291C0.367,-0.322 0.361,-0.336 0.352,-0.358L0.65,-0.358C0.643,-0.336 0.637,-0.32 0.623,-0.291L0.377,-0.291ZM0.867,-0.171L0.133,-0.171L0.133,0.083L0.216,0.083L0.216,0.042L0.786,0.042L0.786,0.083L0.867,0.083L0.867,-0.171ZM0.786,-0.022L0.216,-0.022L0.216,-0.108L0.786,-0.108L0.786,-0.022ZM0.962,-0.79L0.539,-0.79L0.539,-0.844L0.457,-0.844L0.457,-0.79L0.038,-0.79L0.038,-0.725L0.457,-0.725L0.457,-0.66L0.095,-0.66L0.095,-0.598L0.903,-0.598L0.903,-0.66L0.539,-0.66L0.539,-0.725L0.962,-0.725L0.962,-0.79Z" style="fill:rgb(35,31,32);fill-rule:nonzero;"/>
            </g>
            <g transform="matrix(25.3988,0,0,25.3988,118.529,217.172)">
                <path d="M0.194,-0.16C0.237,-0.172 0.316,-0.197 0.411,-0.25C0.449,-0.211 0.496,-0.159 0.538,-0.094C0.352,-0.017 0.196,-0.005 0.112,-0.001L0.136,0.084C0.393,0.066 0.765,-0.019 0.944,-0.349L0.944,-0.419L0.644,-0.419C0.685,-0.461 0.698,-0.477 0.713,-0.498L0.63,-0.524C0.518,-0.39 0.353,-0.287 0.15,-0.23L0.194,-0.16ZM0.847,-0.349C0.792,-0.251 0.709,-0.181 0.614,-0.129C0.589,-0.164 0.523,-0.244 0.475,-0.288C0.504,-0.307 0.526,-0.322 0.562,-0.349L0.847,-0.349ZM0.086,-0.558C0.122,-0.57 0.163,-0.584 0.229,-0.621C0.281,-0.578 0.338,-0.519 0.367,-0.484C0.308,-0.457 0.219,-0.419 0.03,-0.385L0.058,-0.306C0.541,-0.399 0.706,-0.624 0.768,-0.709L0.768,-0.776L0.437,-0.776C0.462,-0.801 0.47,-0.814 0.483,-0.833L0.396,-0.849C0.294,-0.735 0.191,-0.678 0.047,-0.631L0.086,-0.558ZM0.662,-0.706C0.611,-0.645 0.544,-0.576 0.441,-0.52C0.415,-0.549 0.347,-0.62 0.294,-0.66C0.319,-0.677 0.334,-0.687 0.358,-0.706L0.662,-0.706Z" style="fill:rgb(35,31,32);fill-rule:nonzero;"/>
            </g>
            <g transform="matrix(25.3988,0,0,25.3988,143.928,217.172)">
                <path d="M0.41,-0.469C0.416,-0.544 0.417,-0.586 0.418,-0.624L0.964,-0.624L0.964,-0.704L0.543,-0.704L0.543,-0.844L0.455,-0.844L0.455,-0.704L0.036,-0.704L0.036,-0.624L0.332,-0.624C0.33,-0.335 0.295,-0.144 0.024,0.009L0.079,0.086C0.349,-0.08 0.385,-0.267 0.402,-0.391L0.77,-0.391C0.769,-0.376 0.758,-0.113 0.729,-0.049C0.724,-0.038 0.707,-0.002 0.654,-0.002L0.459,-0.002L0.475,0.083L0.665,0.083C0.746,0.083 0.777,0.057 0.798,0.016C0.83,-0.046 0.853,-0.258 0.859,-0.469L0.41,-0.469Z" style="fill:rgb(35,31,32);fill-rule:nonzero;"/>
            </g>
        </g>
        <g transform="matrix(1,0,0,1,108.089,31.8017)">
            <path d="M0,96.349L-82.789,96.349L-82.789,0L27.642,0L27.642,48.454L14.642,48.454L14.642,13L-69.789,13L-69.789,83.349L-13,83.349L-13,37.34L-42.38,37.34L-42.38,72.014L-55.38,72.014L-55.38,24.34L0,24.34L0,96.349Z" style="fill:rgb(237,28,36);fill-rule:nonzero;"/>
        </g>
        <g transform="matrix(1,0,0,1,232.162,31.8017)">
            <path d="M0,96.349L-109.431,96.349L-109.431,48.454L-96.431,48.454L-96.431,83.349L-13,83.349L-13,13L-69.342,13L-69.342,59.01L-40.962,59.01L-40.962,24.359L-27.962,24.359L-27.962,72.01L-82.342,72.01L-82.342,0L0,0L0,96.349Z" style="fill:rgb(35,31,32);fill-rule:nonzero;"/>
        </g>
        <g transform="matrix(1,0,0,1,0,4.251)">
            <rect x="25.3" y="110.9" width="13" height="13" style="fill:rgb(35,31,32);"/>
        </g>
        <g transform="matrix(1,0,0,1,0,-162.447)">
            <rect x="219.162" y="194.249" width="13" height="13" style="fill:rgb(237,28,36);"/>
        </g>
        <g transform="matrix(1,0,0,1,178.18,56.1326)">
            <path d="M0,13L13,13L26.02,0L13.02,0L0,13Z" style="fill:rgb(237,28,36);fill-rule:nonzero;"/>
        </g>
        <g transform="matrix(-0.774544,0.63252,0.63252,0.774544,68.4496,113.328)">
            <path d="M-48.604,-17.325L6.175,-17.325L-3.894,-9.102L-41.892,-9.106L-48.604,-17.325Z" style="fill:rgb(35,31,32);fill-rule:nonzero;"/>
        </g>
    </g>
</svg>
