<?xml version="1.0" encoding="UTF-8" standalone="no"?>
<svg
   width="20"
   height="20"
   fill="none"
   version="1.1"
   id="svg10"
   sodipodi:docname="coderdojo-black.svg"
   inkscape:version="1.2.2 (b0a84865, 2022-12-01)"
   xmlns:inkscape="http://www.inkscape.org/namespaces/inkscape"
   xmlns:sodipodi="http://sodipodi.sourceforge.net/DTD/sodipodi-0.dtd"
   xmlns="http://www.w3.org/2000/svg"
   xmlns:svg="http://www.w3.org/2000/svg">
  <defs
     id="defs14" />
  <sodipodi:namedview
     id="namedview12"
     pagecolor="#505050"
     bordercolor="#eeeeee"
     borderopacity="1"
     inkscape:showpageshadow="0"
     inkscape:pageopacity="0"
     inkscape:pagecheckerboard="0"
     inkscape:deskcolor="#505050"
     showgrid="false"
     inkscape:zoom="42.791667"
     inkscape:cx="6.5900682"
     inkscape:cy="10.072055"
     inkscape:window-width="1762"
     inkscape:window-height="1228"
     inkscape:window-x="1865"
     inkscape:window-y="48"
     inkscape:window-maximized="0"
     inkscape:current-layer="svg10" />
  <path
     d="M 10,20 C 15.523,20 20,15.523 20,10 20,4.477 15.523,0 10,0 4.477,0 0,4.477 0,10 0,15.523 4.477,20 10,20 Z"
     fill="#fefefe"
     id="path2" />
  <path
     fill-rule="evenodd"
     clip-rule="evenodd"
     d="M 10,0 C 15.523,0 20,4.477 20,10 20,15.523 15.523,20 10,20 4.477,20 0,15.523 0,10 0,4.477 4.477,0 10,0 Z M 9.899,0.517 9.759,0.519 c -5.171,0.075 -9.345,4.294 -9.345,9.482 0,5.195 4.183,9.416 9.363,9.482 A 4.743,4.743 0 0 1 5.157,14.743 4.744,4.744 0 0 1 9.9,10 4.744,4.744 0 0 0 14.642,5.258 4.744,4.744 0 0 0 9.9,0.516 Z"
     fill="#1a1a1a"
     id="path4" />
  <path
     fill-rule="evenodd"
     clip-rule="evenodd"
     d="M 8,6.18 V 3.154 C 8,3.022 8.075,2.907 8.228,2.811 a 0.983,0.983 0 0 1 0.54,-0.144 h 2.476 c 0.205,0 0.383,0.048 0.532,0.144 C 11.926,2.907 12,3.022 12,3.154 V 6.18 c 0,0.134 -0.075,0.249 -0.224,0.344 A 0.989,0.989 0 0 1 11.234,6.667 H 8.767 A 0.989,0.989 0 0 1 8.223,6.524 C 8.074,6.429 8,6.314 8,6.18 Z M 11.215,6.161 V 3.18 h -2.42 v 2.98 h 2.42 z"
     fill="#1a1a1a"
     id="path6" />
  <path
     fill-rule="evenodd"
     clip-rule="evenodd"
     d="m 9.598,16.826 h 0.814 v -2.987 h -0.8 A 0.264,0.264 0 0 1 9.424,13.765 0.237,0.237 0 0 1 9.347,13.585 c 0,-0.07 0.026,-0.13 0.077,-0.178 a 0.263,0.263 0 0 1 0.188,-0.074 h 1.33 v 3.493 h 0.53 v -1.054 c 0,-0.068 0.026,-0.127 0.077,-0.178 a 0.257,0.257 0 0 1 0.187,-0.075 c 0.073,0 0.136,0.025 0.188,0.073 a 0.24,0.24 0 0 1 0.077,0.18 v 1.308 c 0,0.07 -0.026,0.13 -0.077,0.18 a 0.26,0.26 0 0 1 -0.188,0.073 H 9.598 a 0.256,0.256 0 0 1 -0.187,-0.076 0.247,0.247 0 0 1 0,-0.359 0.264,0.264 0 0 1 0.187,-0.072 z"
     fill="#ffffff"
     id="path8" />
</svg>
